# xmcd
#
# Track frame offsets: 
#        150
#        26770
#        50361
#        66724
#        83917
#        112576
#        131182
#        151078
#        178357
#        207155
#        236942
#
# Disc length: 3720 seconds
#
# Revision: 0
# Processed by: cddbd v1.5.2PL0 Copyright (c) Steve Scherf et al.
# Submitted via: ExactAudioCopy v1.0b1
#
DISCID=9c0e860b
DTITLE=Billie Joyce - One Willing Heart
DYEAR=2005
DGENRE=Blues
TTITLE0=Season for Being Alone
TTITLE1=Heart of a Fool
TTITLE2=Bring Him Back
TTITLE3=Won't Hold On
TTITLE4=Thunder Bay
TTITLE5=Easy Way
TTITLE6=Real Good Man
TTITLE7=My Family
TTITLE8=Fire
TTITLE9=Romeo
TTITLE10=Goodbye Joeie
EXTD=
EXTT0=
EXTT1=
EXTT2=
EXTT3=
EXTT4=
EXTT5=
EXTT6=
EXTT7=
EXTT8=
EXTT9=
EXTT10=
PLAYORDER=
